<svg version="1.0" xmlns="http://www.w3.org/2000/svg" preserveAspectRatio="xMidYMid meet" viewBox="24.15 35.08 829.72 220.8">

<g transform="translate(0.000000,293.000000) scale(0.100000,-0.100000)" fill="#178733" stroke="none">
<path d="M890 2554 c-280 -64 -445 -186 -555 -409 -56 -115 -71 -177 -86 -350 -15 -179 -6 -733 15 -900 30 -242 73 -442 100 -464 11 -9 47 -8 156 4 79 8 147 18 152 21 12 7 9 20 -26 139 -52 175 -68 306 -73 601 l-5 271 148 6 c373 15 685 106 919 268 89 61 164 140 193 203 47 99 51 234 10 365 -25 82 -84 141 -198 201 -109 56 -201 70 -455 69 -164 0 -205 -4 -295 -25z m483 -294 c83 -26 137 -74 137 -122 0 -45 -35 -112 -78 -149 -74 -66 -254 -131 -461 -168 -93 -17 -218 -25 -345 -22 l-39 1 6 68 c12 149 86 258 224 330 43 22 105 48 137 57 133 39 303 41 419 5z"/>
<path d="M7031 2568 c-123 -11 -261 -91 -332 -194 -98 -142 -129 -474 -65 -689 98 -328 319 -570 639 -699 120 -48 276 -95 370 -110 l78 -13 15 28 c21 42 56 199 50 225 -7 26 -10 27 -121 49 -294 60 -511 187 -637 372 -32 46 -58 88 -58 92 0 4 30 20 68 34 181 72 322 189 388 323 55 112 67 310 25 398 -68 139 -214 203 -420 184z m133 -270 c21 -30 21 -121 -1 -184 -27 -82 -157 -199 -252 -229 l-23 -7 4 118 c5 162 32 222 132 295 51 37 117 41 140 7z"/>
<path d="M7951 2548 c-164 -26 -288 -148 -348 -344 -27 -90 -24 -330 5 -438 31 -110 84 -215 157 -305 78 -95 135 -149 252 -234 112 -83 166 -142 206 -225 24 -52 28 -71 23 -108 -13 -95 -72 -166 -170 -203 -145 -54 -440 -49 -626 11 -83 26 -282 125 -363 180 -71 48 -250 218 -304 290 -37 47 -37 48 -62 31 -60 -37 -220 -159 -221 -166 0 -19 90 -129 176 -213 91 -90 244 -200 384 -276 81 -45 298 -124 410 -150 113 -26 381 -35 517 -18 216 27 380 118 475 264 77 119 95 245 58 391 -41 159 -112 251 -340 435 -187 152 -242 223 -281 365 -18 66 -21 97 -17 190 6 128 23 180 75 226 43 37 81 35 125 -8 55 -53 98 -234 98 -414 0 -70 3 -88 16 -93 9 -3 77 -6 151 -6 l136 0 -7 118 c-17 281 -57 432 -148 549 -93 121 -228 175 -377 151z"/>
<path d="M3894 2530 c-298 -45 -590 -193 -743 -375 -126 -151 -164 -214 -226 -374 -52 -138 -70 -230 -69 -366 2 -199 48 -354 158 -524 136 -210 260 -305 526 -404 225 -84 398 -109 655 -97 290 14 675 94 675 140 0 23 -70 254 -80 264 -7 7 -24 6 -53 -2 -300 -85 -371 -96 -627 -97 -254 0 -329 14 -495 94 -179 86 -279 178 -345 316 -54 114 -75 209 -74 335 1 90 5 118 33 200 85 251 271 439 533 537 175 66 341 79 616 47 78 -9 145 -14 148 -11 12 11 36 279 27 288 -5 5 -36 14 -69 19 -32 5 -89 14 -125 20 -100 15 -328 11 -465 -10z"/>
<path d="M5108 2540 c-88 -14 -151 -46 -207 -104 -86 -92 -125 -195 -156 -417 -29 -209 -15 -427 40 -647 14 -52 24 -96 22 -98 -42 -34 -219 -83 -361 -100 -209 -25 -485 -6 -575 41 -30 15 -47 44 -34 55 4 4 55 12 112 19 195 23 365 90 501 197 139 109 183 259 116 392 -46 90 -117 133 -255 153 -123 17 -257 7 -372 -30 -120 -39 -200 -87 -293 -175 -137 -132 -180 -234 -181 -426 0 -110 2 -118 32 -180 18 -36 54 -92 80 -125 194 -240 783 -296 1270 -120 82 29 83 29 83 11 0 -22 109 -236 157 -308 86 -130 234 -241 378 -284 71 -21 215 -23 296 -4 112 26 251 125 321 229 17 25 33 48 34 50 2 2 39 -29 81 -70 97 -92 234 -172 348 -202 45 -11 88 -18 96 -15 17 6 119 203 119 229 0 11 -19 21 -62 33 -131 36 -317 157 -399 259 l-38 49 21 51 c46 112 128 368 152 477 39 176 46 240 46 441 0 293 -39 446 -139 550 -58 60 -102 73 -246 74 -105 0 -113 -1 -172 -32 -68 -36 -146 -119 -188 -203 -44 -87 -68 -234 -67 -425 0 -188 16 -318 62 -504 23 -93 46 -150 116 -290 l87 -173 -30 -62 c-50 -100 -86 -141 -150 -172 -50 -25 -70 -29 -143 -29 -73 0 -93 4 -142 28 -104 51 -191 172 -254 353 l-28 82 79 84 c178 188 265 444 265 779 0 222 -44 384 -128 481 -59 66 -173 97 -294 78z m1024 -303 c33 -50 52 -298 38 -483 -15 -206 -59 -435 -89 -467 -10 -10 -66 181 -88 295 -11 54 -17 142 -17 253 -1 293 42 440 124 420 14 -4 28 -12 32 -18z m-933 -21 c47 -100 30 -491 -29 -649 -11 -30 -35 -74 -52 -98 -37 -52 -41 -47 -64 82 -29 164 -20 475 17 612 22 83 98 115 128 53z m-940 -462 c28 -36 26 -56 -6 -89 -52 -52 -177 -103 -306 -125 -141 -24 -177 -25 -177 -7 0 21 52 89 100 129 109 94 164 116 292 117 71 1 78 -1 97 -25z"/>
<path d="M2945 2530 c-251 -41 -419 -139 -544 -318 -13 -18 -25 -32 -26 -30 -2 2 -8 66 -15 143 -16 201 -9 185 -83 185 -65 0 -244 -24 -254 -34 -3 -3 2 -88 11 -188 51 -565 175 -1022 379 -1400 56 -105 232 -365 296 -438 l39 -45 132 65 c72 36 136 70 141 76 6 7 -23 51 -87 130 -160 199 -274 396 -361 624 -105 277 -109 385 -16 561 53 102 131 190 220 248 75 50 206 101 257 101 13 0 28 6 34 13 12 15 58 294 50 303 -11 10 -120 13 -173 4z"/>
<path d="M1710 1481 c-64 -9 -70 -16 -70 -72 0 -27 -4 -49 -9 -49 -5 0 -30 10 -57 21 -75 33 -241 38 -359 10 -129 -30 -208 -72 -286 -150 -72 -73 -104 -131 -125 -230 -31 -148 -14 -244 66 -363 71 -107 154 -163 282 -192 144 -33 342 -27 518 16 52 13 171 70 217 104 17 13 38 24 45 24 7 0 26 -21 42 -48 39 -63 95 -132 107 -132 16 0 249 151 249 161 0 6 -23 45 -51 87 -67 103 -181 335 -217 447 -16 50 -40 149 -52 220 -12 72 -24 136 -26 143 -4 13 -187 15 -274 3z m-189 -367 c140 -25 180 -60 236 -203 l17 -44 -43 -39 c-96 -84 -232 -125 -381 -115 -153 10 -240 82 -240 198 0 102 95 190 224 209 79 12 95 11 187 -6z"/>
</g>
</svg>